<svg xmlns="http://www.w3.org/2000/svg" viewBox="0 0 512 512">
  <!-- Dark rounded background matching web logo style -->
  <rect width="512" height="512" rx="96" fill="#111827"/>
  <!-- Folder tab -->
  <path d="M84 166c0-26 20-46 46-46h90l40 44h122c26 0 46 20 46 46v144c0 26-20 46-46 46H130c-26 0-46-20-46-46V166z" fill="#f59e0b"/>
  <!-- Folder body overlay -->
  <path d="M84 220h344v138c0 24-20 42-44 42H128c-24 0-44-18-44-42V220z" fill="#f97316"/>
  <!-- Folder highlight -->
  <path d="M84 220h344v24H84z" fill="#fbbf24" fill-opacity="0.4"/>
  <!-- Fire outer glow (red) -->
  <path d="M274 366c-50 0-86-34-86-80 0-36 24-60 50-86 16-16 32-34 38-58 50 34 48 76 38 104 18-12 30-32 34-54 32 26 50 56 50 90 0 50-44 84-124 84z" fill="#fee2e2"/>
  <!-- Fire middle (deep red) -->
  <path d="M278 358c-32 0-54-22-54-50 0-24 16-40 32-56 10-10 22-22 26-38 32 22 30 50 24 68 12-8 20-20 22-34 20 16 32 36 32 58 0 32-28 52-82 52z" fill="#dc2626"/>
  <!-- Fire inner core (yellow) -->
  <path d="M284 350c-18 0-32-12-32-30 0-14 10-24 20-34 6-6 12-14 16-24 20 14 18 30 14 42 8-4 12-12 14-20 12 10 20 22 20 36 0 18-18 30-52 30z" fill="#facc15"/>
</svg>
